<svg width="100" height="100" viewBox="0 0 100 100" fill="none" xmlns="http://www.w3.org/2000/svg">
<path d="M7.58718 74.7408V92.4128H25.2592L77.3798 40.245L59.7078 22.573L7.58718 74.7408ZM100 79.9717L79.9717 100L55.4665 75.4948L63.8077 67.1536L68.5203 71.8662L80.1602 60.1791L86.852 66.8709L79.9717 73.5627L84.967 78.2752L91.6588 71.6777L100 79.9717ZM24.5994 44.4863L0 20.0283L20.0283 0L28.3223 8.34119L16.6824 20.0283L21.7248 25.0236L33.3176 13.3365L40.0094 20.0283L33.3176 26.673L38.0302 31.3855L24.5994 44.4863ZM91.0462 26.4373C92.8841 24.5994 92.8841 21.7248 91.0462 19.7926L80.0189 8.95382C78.2752 7.11593 75.2121 7.11593 73.3742 8.95382L64.7031 17.5778L82.3751 35.2498L91.0462 26.4373Z" fill="#6C63FF"/>
</svg>
