<svg width="144" height="100" viewBox="0 0 144 100" fill="none" xmlns="http://www.w3.org/2000/svg">
<path d="M14.3363 14.2857C14.3363 6.40625 20.7652 0 28.6726 0H114.69C122.598 0 129.027 6.40625 129.027 14.2857V71.4286H114.69V14.2857H28.6726V71.4286H14.3363V14.2857ZM0 82.8571C0 80.4911 1.92644 78.5714 4.30088 78.5714H139.062C141.436 78.5714 143.363 80.4911 143.363 82.8571C143.363 92.3214 135.657 100 126.159 100H17.2035C7.70575 100 0 92.3214 0 82.8571ZM62.9452 39.5089L56.0011 46.4286L62.9452 53.3482C65.0509 55.4464 65.0509 58.8393 62.9452 60.9152C60.8396 62.9911 57.4347 63.0134 55.3515 60.9152L44.5993 50.2009C42.4936 48.1027 42.4936 44.7098 44.5993 42.6339L55.3515 31.9196C57.4571 29.8214 60.862 29.8214 62.9452 31.9196C65.0285 34.0179 65.0509 37.4107 62.9452 39.4866V39.5089ZM88.0337 31.9196L98.7859 42.6339C100.892 44.7321 100.892 48.125 98.7859 50.2009L88.0337 60.9152C85.9281 63.0134 82.5232 63.0134 80.44 60.9152C78.3567 58.817 78.3343 55.4241 80.44 53.3482L87.3841 46.4286L80.44 39.5089C78.3343 37.4107 78.3343 34.0179 80.44 31.942C82.5456 29.8661 85.9505 29.8438 88.0337 31.942V31.9196Z" fill="#6C63FF"/>
</svg>
