<svg width="100" height="100" viewBox="0 0 100 100" fill="none" xmlns="http://www.w3.org/2000/svg">
<path d="M50 100C43.4339 100 36.9321 98.7067 30.8658 96.194C24.7995 93.6812 19.2876 89.9983 14.6447 85.3553C5.26784 75.9785 0 63.2608 0 50C0 36.7392 5.26784 24.0215 14.6447 14.6447C24.0215 5.26784 36.7392 0 50 0C77.5 0 100 20 100 45C100 52.9565 96.8393 60.5871 91.2132 66.2132C85.5871 71.8393 77.9565 75 70 75H61C59.5 75 58.5 76 58.5 77.5C58.5 78 59 78.5 59 79C61 81.5 62 84.5 62 87.5C62.5 94.5 57 100 50 100ZM50 10C39.3913 10 29.2172 14.2143 21.7157 21.7157C14.2143 29.2172 10 39.3913 10 50C10 60.6087 14.2143 70.7828 21.7157 78.2843C29.2172 85.7857 39.3913 90 50 90C51.5 90 52.5 89 52.5 87.5C52.5 86.5 52 86 52 85.5C50 83 49 80.5 49 77.5C49 70.5 54.5 65 61.5 65H70C75.3043 65 80.3914 62.8929 84.1421 59.1421C87.8929 55.3914 90 50.3043 90 45C90 25.5 72 10 50 10ZM22.5 40C26.5 40 30 43.5 30 47.5C30 51.5 26.5 55 22.5 55C18.5 55 15 51.5 15 47.5C15 43.5 18.5 40 22.5 40ZM37.5 20C41.5 20 45 23.5 45 27.5C45 31.5 41.5 35 37.5 35C33.5 35 30 31.5 30 27.5C30 23.5 33.5 20 37.5 20ZM62.5 20C66.5 20 70 23.5 70 27.5C70 31.5 66.5 35 62.5 35C58.5 35 55 31.5 55 27.5C55 23.5 58.5 20 62.5 20ZM77.5 40C81.5 40 85 43.5 85 47.5C85 51.5 81.5 55 77.5 55C73.5 55 70 51.5 70 47.5C70 43.5 73.5 40 77.5 40Z" fill="#6C63FF"/>
</svg>
